<svg xmlns="http://www.w3.org/2000/svg" id="Layer_1" data-name="Layer 1" viewBox="23 409.21 944.04 181.58">  <defs>    <style>      .cls-1 {        font-family: ArialMT, Arial;        font-size: 148.55px;        stroke: #d6e8ee;        stroke-miterlimit: 10;      }      .cls-1, .cls-2 {        fill: #d6e8ee;      }      .cls-2 {        stroke-width: 0px;      }    </style>  </defs>  <path class="cls-2" d="M207.25,500.54c-.05,15.65-3.07,30.65-9.93,44.79-4.66,9.6-10.84,18.11-18.83,25.21-12.48,11.08-27.1,17.59-43.59,19.86-12.13,1.67-22.46-2.1-31.2-10.62-4.94-4.82-9.5-10-14.17-15.07-7.69-8.36-16.69-14.93-26.52-20.51-7.85-4.46-15.66-8.96-22.67-14.76-19.24-15.9-23.65-45.8-7.24-66.25,7.17-8.94,16.46-14.95,26.96-19.24,5.89-2.41,12.04-3.95,18.2-5.47,12.94-3.18,24.21-9.51,34.24-18.21,3.5-3.03,7.06-6.02,11.19-8.21,6.39-3.39,13.12-3.38,19.97-1.93,19.6,4.17,34.74,14.99,46.03,31.32,9.63,13.94,14.89,29.53,16.81,46.3.49,4.25.82,8.5.75,12.78ZM177.97,506.83c.01-31.33-25.26-56.53-56.74-56.58-31.21-.05-56.81,25.34-56.74,56.43.06,30.93,25.21,56.35,56.74,56.35,31.26,0,56.72-25.22,56.74-56.2Z"></path>  <text class="cls-1" transform="translate(223.49 556.37)"><tspan x="0" y="0">ORALISYS</tspan></text></svg>